<svg width="367" height="907" viewBox="0 0 367 907" fill="none" xmlns="http://www.w3.org/2000/svg">
<g filter="url(#filter0_d_339_620)">
<path d="M326.688 851V38C326.688 31.3726 321.316 26 314.688 26H119.958C113.331 26 107.958 31.3726 107.958 38V125.181C107.958 133.019 100.554 138.833 92.8422 137.436C75.4415 134.283 48.1891 131.19 39.8866 140.649C27.3734 154.906 27.874 340.246 39.8866 355.097C47.8591 364.953 75.2324 361.727 92.7432 358.442C100.484 356.99 107.958 362.814 107.958 370.69V851C107.958 857.627 113.331 863 119.958 863H314.688C321.316 863 326.688 857.627 326.688 851Z" fill="#FFDD34"/>
</g>
<defs>
<filter id="filter0_d_339_620" x="0.688446" y="0" width="366" height="907" filterUnits="userSpaceOnUse" color-interpolation-filters="sRGB">
<feFlood flood-opacity="0" result="BackgroundImageFix"/>
<feColorMatrix in="SourceAlpha" type="matrix" values="0 0 0 0 0 0 0 0 0 0 0 0 0 0 0 0 0 0 127 0" result="hardAlpha"/>
<feOffset dx="5" dy="9"/>
<feGaussianBlur stdDeviation="17.5"/>
<feComposite in2="hardAlpha" operator="out"/>
<feColorMatrix type="matrix" values="0 0 0 0 0 0 0 0 0 0 0 0 0 0 0 0 0 0 0.25 0"/>
<feBlend mode="normal" in2="BackgroundImageFix" result="effect1_dropShadow_339_620"/>
<feBlend mode="normal" in="SourceGraphic" in2="effect1_dropShadow_339_620" result="shape"/>
</filter>
</defs>
</svg>
